<svg width="8" height="12" viewBox="0 0 8 12" fill="none" xmlns="http://www.w3.org/2000/svg">
<path d="M6.8303 10.9997C7.01655 10.8123 7.12109 10.5589 7.12109 10.2947C7.12109 10.0305 7.01655 9.77707 6.8303 9.5897L3.2903 5.9997L6.8303 2.4597C7.01655 2.27234 7.12109 2.01889 7.12109 1.7547C7.12109 1.49052 7.01655 1.23707 6.8303 1.0497C6.73734 0.955976 6.62674 0.881582 6.50488 0.830813C6.38302 0.780044 6.25231 0.753906 6.1203 0.753906C5.98829 0.753906 5.85758 0.780044 5.73572 0.830813C5.61387 0.881582 5.50326 0.955976 5.4103 1.0497L1.1703 5.2897C1.07657 5.38267 1.00218 5.49327 0.95141 5.61513C0.900641 5.73699 0.874503 5.86769 0.874503 5.9997C0.874503 6.13172 0.900641 6.26242 0.95141 6.38428C1.00218 6.50614 1.07657 6.61674 1.1703 6.7097L5.4103 10.9997C5.50326 11.0934 5.61386 11.1678 5.73572 11.2186C5.85758 11.2694 5.98829 11.2955 6.1203 11.2955C6.25231 11.2955 6.38302 11.2694 6.50488 11.2186C6.62674 11.1678 6.73734 11.0934 6.8303 10.9997Z" fill="#272848"/>
</svg>
